<?xml version="1.0" standalone="no"?>
<!DOCTYPE svg PUBLIC "-//W3C//DTD SVG 1.1//EN" "http://www.w3.org/Graphics/SVG/1.1/DTD/svg11.dtd" >
<svg xmlns="http://www.w3.org/2000/svg">
<metadata></metadata>
<defs>
<font id="teambition-ui-iconsui-icons" horiz-adv-x="512" >
<font-face units-per-em="512" ascent="480" descent="-32" />
<missing-glyph horiz-adv-x="500" />
<glyph unicode="&#xd;" horiz-adv-x="170" />
<glyph unicode="&#x25fc;" horiz-adv-x="500" d="M0 0v0v0v0v0z" />
<glyph unicode="&#xe000;" horiz-adv-x="500" />
<glyph unicode="&#xe001;" d="M202 42q-1 13 -8 32.5t-20 39.5t-42.5 35t-69.5 18q109 102 269 273q31 16 62 8.5t54 -26t31 -51.5t-6 -67l-270 -276v14zM48 126q14 -1 34 -8t39.5 -18.5t33 -37.5t13.5 -61q-73 -17 -168 -31l35 156h13z" />
<glyph unicode="&#xe002;" d="M0 334v73h146v73h220v-73h146v-73h-512zM329 443h-146v-36h146v36zM366 297h109v-256q0 -42 -29 -57.5t-80 -15.5h-220q-51 0 -80 15.5t-29 57.5v256h109h220zM110 41h73v183h-73v-183zM219 41h74v183h-74v-183zM329 41h73v183h-73v-183z" />
<glyph unicode="&#xe003;" d="M384 128v64h-96v-96h64l-96 -128l-96 128h64v96h-96v-64l-128 96l128 96v-64h96v96h-64l96 128l96 -128h-64v-96h96v64l128 -96z" />
<glyph unicode="&#xe004;" horiz-adv-x="0" />
<glyph unicode="&#xf001;" d="M101 242q17 -17 17 -42t-17 -42t-42 -17t-42 17t-17 42t17 42t42 17t42 -17zM298 242q17 -17 17 -42t-17 -42t-42 -17t-42 17t-17 42t17 42t42 17t42 -17zM495 242q17 -17 17 -42t-17 -42t-42 -17t-42 17t-17 42t17 42t42 17t42 -17z" />
<glyph unicode="&#xf002;" d="M222 224q51 58 130.5 125.5t136.5 84.5q10 0 16 -6t6.5 -10t0.5 -6l-22 -20q-23 -20 -59.5 -57.5t-77 -83t-82 -106.5t-68.5 -119q-13 -12 -23 0l-40 40q-39 40 -84 84t-56 51q2 27 46 50l124 -86z" />
<glyph unicode="&#xf003;" d="M444 366q5 -5 5 -11q0 -7 -5 -12l-125 -124q-11 -11 0 -23l125 -124q5 -5 5 -11q0 -7 -5 -12l-45 -45q-5 -5 -11 -5q-7 0 -12 5l-124 124q-5 5 -11 5q-7 0 -12 -5l-124 -124q-5 -5 -11 -5q-7 0 -12 5l-45 45q-5 5 -5 12q0 6 5 11l124 124q11 12 0 23l-124 124 q-12 12 0 23l45 45q5 5 12 5q6 0 11 -5l124 -124q5 -5 12 -5q6 0 11 5l124 124q11 12 23 0l45 -45v0z" />
<glyph unicode="&#xf004;" d="M288 0q0 -13 -9 -22q-10 -10 -23 -10h-32q-13 0 -22 10q-10 9 -10 22v160h-160q-13 0 -22 10q-10 9 -10 22v32q0 13 10 23q9 9 22 9h160v160q0 13 10 23q9 9 22 9h32q12 0 23 -9q9 -11 9 -23v-160h160q12 0 23 -9q9 -11 9 -23v-32q0 -13 -9 -22q-10 -10 -23 -10h-160 v-160z" />
<glyph unicode="&#xf005;" d="M481 304l-225 -224l-224 224l66 64l159 -161l160 161z" />
<glyph unicode="&#xf006;" d="M32 144l225 224l224 -224l-66 -64l-159 161l-160 -161z" />
<glyph unicode="&#xf007;" d="M320 -33l-224 225l224 224l64 -66l-161 -159l161 -160z" />
<glyph unicode="&#xf008;" d="M416 192l-223 -225l-65 64l161 161l-161 158l64 66z" />
<glyph unicode="&#xf009;" d="M278 127v-16h-67v19q-3 67 62 114q63 43 57 91q-7 54 -68 58q-80 3 -94 -81l-72 20q30 134 173 126q126 -6 137 -126q3 -73 -85 -137q-44 -30 -43 -68zM201 64h86v-78h-86v78z" />
<glyph unicode="&#xf00a;" d="M75 43q-75 75 -75 181t75 181t181 75t181 -75t75 -181t-75 -181t-181 -75t-181 75zM120 360q-56 -56 -56 -136t56 -136t136 -56t136 56t56 136t-56 136t-136 56t-136 -56zM323 321q0 -4 -1 -6q-4 -9 -19 -18q-13 -5 -23 -5t-17 4t-7 11q0 5 1 8q5 9 19 17q13 5 24 5 q9 0 16 -4t7 -12zM318 175l-1 -1q-8 -21 -44 -41q-32 -19 -61 -19q-10 0 -18 8q-7 9 -7 18q0 6 3 14l53 118l44 -25l-37 -84l-2 -6q0 -6 6 -6q10 0 30 13q17 13 23 25z" />
<glyph unicode="&#xf00b;" d="M75 405q75 75 181 75t181 -75t75 -181t-75 -181t-181 -75t-181 75t-75 181t75 181zM111 79q60 -60 145 -60t145 60t60 145t-60 145t-145 60t-145 -60t-60 -145t60 -145zM284 252h72q11 0 19.5 -8t8.5 -20t-8.5 -20t-19.5 -8h-72v-72q0 -11 -8 -19.5t-20 -8.5t-20 8.5 t-8 19.5v72h-72q-11 0 -19.5 8t-8.5 20t8.5 20t19.5 8h72v72q0 11 8 19.5t20 8.5t20 -8.5t8 -19.5v-72z" />
<glyph unicode="&#xf00c;" d="M75 43q-75 75 -75 181t75 181t181 75t181 -75t75 -181t-75 -181t-181 -75t-181 75zM120 360q-56 -56 -56 -136t56 -136t136 -56t136 56t56 136t-56 136t-136 56t-136 -56zM293 224v-73q0 -13 -12 -25t-23 -12h-4q-11 0 -23 12t-12 25v73l-22 -32q-10 -8 -19.5 -7.5 t-15.5 5.5l-7 5q-8 8 -8 20.5t8 21.5l78 85v1l3 2q8 9 20 9t19 -9l3 -2v-1l78 -85q8 -9 8 -21.5t-8 -20.5l-2.5 -2.5t-6.5 -4t-10 -3.5t-11.5 0.5t-11.5 6.5z" />
<glyph unicode="&#xf00d;" d="M258 480q52 0 98.5 -20t81.5 -55t55 -81.5t20 -100.5q0 -53 -20 -99.5t-55 -81t-81.5 -54.5t-98.5 -20q-54 0 -101 20t-82 54.5t-55 81t-20 99.5q0 54 20 100.5t55 81.5t82 55t101 20zM258 32q39 0 73.5 15t60.5 41t41 61t15 74q0 40 -15 75t-41 61.5t-60.5 41.5 t-73.5 15q-40 0 -75 -15t-61.5 -41.5t-41.5 -61.5t-15 -75q0 -39 15 -74t41.5 -61t61.5 -41t75 -15zM220 297v-74l-22 32q-7 8 -14.5 8.5t-13.5 -1.5q-7 -3 -14 -9q-8 -9 -8 -21.5t8 -20.5l79 -85v-1l2 -2q7 -8 21 -8q11 0 18 8l4 2v1l78 85q8 8 8 20.5t-8 21.5q-7 6 -14 9 q-6 2 -13.5 1.5t-14.5 -8.5l-23 -32v74q0 13 -11.5 24.5t-22.5 11.5h-5q-11 0 -22.5 -11.5t-11.5 -24.5z" />
<glyph unicode="&#xf00e;" d="M503 380q14 -102 0 -204q-6 -34 -27 -57t-51 -23h-127l-121 -121q-5 -6 -12 -6q-3 0 -7 2q-12 5 -12 17l-17 108q-6 0 -20.5 -0.5t-21.5 0.5q-31 4 -52 25.5t-26 54.5q-14 102 0 204q5 32 33.5 58.5t59.5 30.5q154 15 308 0q31 -4 59.5 -30.5t33.5 -58.5z" />
<glyph unicode="&#xf00f;" d="M491 402q21 -13 21 -32v-9l-24 -19q-4 -4 -54 -44q-20 -16 -71 -55q-31 -23 -64 -43q-31 -19 -43 -19q-10 0 -42 20q-40 25 -64 43q-25 17 -72 55q-45 35 -54 43l-24 19v10q0 18 22 31q22 14 42 14h384q20 0 43 -14zM444 233l48 39q5 4 11.5 10t8.5 7v-257v-3l-4 -8 q-4 -6 -10 -10q-5 -4 -19 -7q-12 -4 -31 -4h-384q-19 0 -31 4q-14 3 -19 7q-6 5 -9 10q-4 4 -4 8q-1 1 -1 3v256q1 -2 48 -40q46 -37 112 -80q64 -41 96 -41q22 0 56 18q34 17 66 39q35 25 66 49z" />
<glyph unicode="&#xf010;" d="M297 323q-24 0 -40 11l-1 1l-1 -1q-16 -11 -40 -11q-57 0 -101 37q-29 25 -34 55.5t18 49.5q19 15 49 15q43 0 77 -28q19 -16 32 -39q13 23 32 39q34 28 77 28q29 0 49 -15q23 -19 18 -49.5t-34 -55.5q-44 -37 -101 -37zM226 362q4 6 -5 26.5t-27 35.5q-21 18 -47 18 q-14 0 -20 -5q-5 -5 -5 -13q0 -19 21 -36q34 -27 72 -27q6 0 10 1h1zM318 424q-18 -15 -26.5 -35t-4.5 -27q3 -1 10 -1q38 0 72 27q21 17 21 36q0 10 -5 13q-6 5 -20 5q-26 0 -47 -18zM237 165h-198v118q0 16 12 27.5t28 11.5h158v-157zM275 322h158q16 0 28 -11.5t12 -27.5 v-118h-198v157zM237 126l1 -158h-163q-15 0 -25.5 10.5t-10.5 26.5v121h198zM275 126h198v-121q0 -16 -10.5 -26.5t-25.5 -10.5h-163z" />
<glyph unicode="&#xf011;" d="M295 244q0 -15 -11 -28q-12 -12 -28 -12t-28 12q-11 13 -11 28v197q0 16 11 27q12 12 28 12t28 -12q11 -11 11 -27v-197zM493 204q0 -45 -19 -91q-20 -47 -51 -76q-32 -32 -75 -50q-42 -19 -92 -19t-92 19q-43 18 -75 50q-31 29 -51 76q-19 46 -19 91q0 54 25 106 q25 48 70 83q14 9 29 8q17 -3 26 -16q10 -12 7 -29q-1 -15 -15 -26q-63 -47 -63 -126q0 -65 46.5 -111t111.5 -46t111.5 46t46.5 111q0 79 -63 126q-13 10 -16 26q-2 18 8 29q9 13 26 16q15 1 29 -8q45 -35 70 -83q25 -52 25 -106z" />
<glyph unicode="&#xf012;" d="M59 425h395q27 0 42.5 -15.5t15.5 -38.5v-293q0 -25 -17 -40t-41 -15h-103h-26h-268q-26 0 -41.5 15t-15.5 40v293q0 25 15.5 39.5t43.5 14.5zM73 352v-256h366v256h-366zM110 315h73v-73h-73v73zM219 315h74v-73h-74v73zM329 315h73v-73h-73v73zM146 206h220v-73h-220 v73z" />
<glyph unicode="&#xf013;" d="M256 480l88 -173l168 -23l-133 -121l35 -195l-161 93l-155 -93l33 192l-131 124l165 25z" />
<glyph unicode="&#xf014;" d="M402 406v-109q31 0 52.5 -21.5t21.5 -51.5v-183q0 -31 -21.5 -52t-52.5 -21h-292q-31 0 -52.5 21t-21.5 52v183q0 30 21.5 51.5t51.5 21.5v109q0 31 21.5 52.5t52.5 21.5h146q31 0 52 -21.5t21 -52.5zM330 297v73q0 15 -11 26.5t-26 11.5h-74q-15 0 -25.5 -11.5 t-10.5 -26.5v-73h147z" />
<glyph unicode="&#xf015;" d="M257 400q49 0 93 -19t72 -42q27 -24 51 -54q23 -30 31 -43q7 -14 9 -19q0 -3 -9 -18q-9 -17 -31 -43q-22 -28 -50 -53q-27 -24 -73 -43q-44 -19 -93 -19q-54 0 -99 19q-49 21 -73 43q-26 21 -49 54q-22 30 -27 42q-6 11 -8 19l10 18q13 23 32 44q23 28 50 52q29 26 73 44 q43 18 91 18zM334 145q30 31 30 79q0 46 -30 78t-76 32q-47 0 -77 -32t-30 -78q0 -48 30 -79q30 -32 77 -32q46 0 76 32zM303 270q18 -19 18 -46q0 -28 -18 -47q-20 -20 -45 -20q-26 0 -46 20q-19 19 -19 47q0 27 19 46q20 20 46 20q25 0 45 -20z" />
<glyph unicode="&#xf016;" d="M500 -20q-10 -12 -27 -12t-28 12l-106 105q-53 -38 -122 -38q-47 0 -85 17q-80 35 -115 115q-17 42 -17 84q0 44 17 84q15 38 46 70q26 26 69 46q42 17 85 17q42 0 84 -17q40 -18 69 -46q31 -32 46 -70q17 -40 17 -84q0 -69 -38 -122l106 -106q11 -13 11 -28 q0 -17 -12 -27zM217 126q57 0 97 40t40 97q0 58 -40 98t-97 40q-58 0 -98 -40t-40 -98q0 -57 40 -97t98 -40z" />
<glyph unicode="&#xf017;" d="M395 141l106 -106q11 -13 11 -28q0 -16 -12 -27q-10 -12 -27 -12t-28 12l-106 105q-53 -38 -122 -38q-47 0 -85 17q-80 35 -115 115q-17 42 -17 84q0 44 17 84q15 38 46 70q26 26 69 46q42 17 85 17q42 0 84 -17q40 -18 69 -46q31 -32 46 -70q17 -40 17 -84 q0 -69 -38 -122zM354 263q0 58 -40 98t-97 40q-58 0 -98 -40t-40 -98q0 -57 40 -97t98 -40q57 0 97 40t40 97zM231 275h67q9 0 9 -6v-13q0 -6 -9 -6h-67v-68q0 -9 -7 -9h-13q-6 0 -6 9v68h-68q-9 0 -9 6v13q0 6 9 6h68v68q0 9 6 9h13q7 0 7 -9v-68z" />
<glyph unicode="&#xf018;" d="M472 -32q-16 0 -27 12l-106 105q-53 -38 -123 -38q-46 0 -84 17q-80 35 -115 115q-17 38 -17 84t17 84q17 41 46 69q27 28 69 47q42 17 84 17q44 0 84 -17q41 -18 70 -47q28 -28 46 -69q17 -42 17 -84q0 -67 -38 -123l105 -105q12 -12 12 -28q0 -17 -12 -27 q-12 -12 -28 -12zM314 166q40 40 40 97q0 58 -40 97q-40 41 -98 41q-57 0 -97 -41q-40 -39 -40 -97q0 -57 40 -97q41 -41 97 -41q57 0 98 41zM128 269q0 6 9 6h161q9 0 9 -6v-13q0 -6 -9 -6h-161q-9 0 -9 6v13z" />
<glyph unicode="&#xf019;" d="M401 91q111 -41 111 -66v-57h-512v57q0 25 111 66q50 18 69.5 37t19.5 51q0 12 -12.5 26t-17.5 40q-1 6 -5 9t-8 4.5t-7.5 9.5t-4.5 23q0 8 2.5 13.5t4.5 7.5l3 2q-5 27 -7 48q-3 28 22 60t86 32t86 -32t22 -60l-7 -48q10 -5 10 -23q-1 -15 -4.5 -23t-7.5 -9.5t-8 -4.5 t-5 -9q-5 -26 -17.5 -40t-12.5 -26q0 -32 19.5 -51t69.5 -37z" />
<glyph unicode="&#xf01a;" d="M317 100q53 -19 75 -30.5t22 -22.5v-79h-414v118q9 4 25 9t17 5q48 17 66 35t18 49q0 11 -12 24.5t-16 38.5q-1 6 -11.5 12t-12.5 31q0 8 2 13.5t4 6.5l3 2q-5 25 -7 45q-1 11 3 26.5t13.5 33.5t31.5 30.5t53 12.5t54 -12.5t33 -30.5t14.5 -33.5t3.5 -26.5l-7 -45 q10 -5 10 -22q-1 -15 -5 -22.5t-7.5 -8.5t-7 -3.5t-4.5 -8.5q-5 -25 -16.5 -38.5t-11.5 -24.5q0 -31 18 -49t66 -35zM512 244v-60h-79v-78h-59v78h-79v60h79v78h59v-78h79z" />
<glyph unicode="&#xf01b;" d="M262 101q94 -39 94 -63v-70h-356v93q0 23 43 40q39 17 53 33t14 45q0 10 -9 22t-13 35q-1 6 -9.5 11.5t-9.5 28.5q0 7 1.5 12t3.5 6l2 2q-4 24 -5 42q-2 25 16.5 52.5t64.5 27.5q47 0 65.5 -27.5t16.5 -52.5l-5 -42q7 -4 7 -20q-1 -23 -9.5 -28.5t-9.5 -11.5 q-4 -23 -13 -35t-9 -22q0 -29 14 -45t53 -33zM397 -32v76q0 27 -15.5 41t-78.5 46q21 15 21 43q0 7 -7 16.5t-10 26.5q-1 4 -7 8.5t-7 21.5l5 15l-4 31q-1 19 13 39.5t49 20.5q34 0 48 -20.5t13 -39.5l-4 -31q6 -3 6 -15q-1 -17 -7.5 -21.5t-7.5 -8.5q-3 -17 -9.5 -26.5 t-6.5 -16.5q0 -22 10.5 -34t39.5 -24q57 -24 67 -41q3 -4 4.5 -31t2.5 -52v-24h-115z" />
<glyph unicode="&#xf01c;" d="M148 -36q-53 0 -90 39q-24 23 -33.5 53.5t-0.5 66t40 66.5l62.5 62.5l110 110l87.5 87.5q40 40 91 27q23 -6 41 -24t26 -42q12 -49 -29 -92l-248 -247q-20 -22 -47 -25q-25 -2 -41 14q-16 14 -14.5 39.5t24.5 48.5l175 175q12 13 25 0q13 -14 0 -27l-175 -174 q-22 -24 -9 -35q3 -4 11 -4q12 1 25 14l249 248q26 24 18 56q-8 31 -40 39q-30 8 -57 -18q-222 -222 -260 -259q-33 -38 -32 -73.5t27 -61.5t61.5 -27t73.5 33l260 259q14 12 26 0q13 -13 0 -26l-259 -259q-44 -44 -98 -44z" />
<glyph unicode="&#xf01d;" d="M430 152l41 -82l-62 -61l-82 41l-41 -82h-61l-41 82l-82 -41l-61 61l40 82l-81 41v62l81 41h1l-41 82l61 61l82 -41l41 82h61l41 -82l82 41l62 -61l-41 -82l82 -41v-62zM256 152q29 0 50 21t21 51t-21 51t-50 21q-30 0 -51 -21t-21 -51t21 -51t51 -21z" />
<glyph unicode="&#xf01e;" d="M40 480h433q16 0 27.5 -12t11.5 -29v-362q0 -16 -10 -26t-26 -10h-147v-36h-73h-73v36h-146q-17 0 -27 10t-10 26v362q0 17 12 29t28 12zM438 406h-364v-292h364v292zM183 4l146 1q55 -2 82.5 -9.5t27.5 -27.5h-366q0 20 28 27.5t82 8.5z" />
<glyph unicode="&#xf01f;" d="M197 463l229 -120q9 -5 9 -14v-291q0 -7 -7 -13t-14 -6q-15 0 -15 20v250q0 21 -14 28l-206 112q-16 5 -34 -5q-24 -13 -29 -23q147 -79 193 -110q19 -11 19 -38v-250q0 -31 -4 -33q-3 -2 -9 -2q-7 0 -10 2q-3 3 -100 64.5t-110 69.5q-12 6 -14 17l-2 271q0 16 7 27 q15 23 52 39.5t59 4.5z" />
<glyph unicode="&#xf020;" d="M102 20q-41 0 -71.5 27.5t-30.5 75.5v77l149 229h214l149 -229v-77q0 -48 -30.5 -75.5t-71.5 -27.5h-308zM333 379h-154l-102 -179h102v-25q0 -16 6 -21.5t20 -5.5h102q14 0 20 5.5t6 21.5v25h102z" />
<glyph unicode="&#xf021;" d="M433 480h40q39 0 39 -50v-407q0 -23 -16 -39t-39 -16h-402q-23 0 -39 16t-16 39v407q0 50 39 50h40v-78h98v78h158v-78h98v78zM158 421h-59v59h59v-59zM413 421h-59v59h59v-59zM453 323h-394v-296h394v296zM158 185h59v59h-59v-59zM237 185h58v59h-58v-59zM315 185h59v59 h-59v-59zM158 106h59v59h-59v-59zM237 106h58v59h-58v-59zM315 106h59v59h-59v-59z" />
<glyph unicode="&#xf022;" d="M51 410q11 0 18.5 -8t7.5 -18v-51q0 -11 -7.5 -18.5t-18.5 -7.5h-25q-11 0 -18.5 7.5t-7.5 18.5v51q0 11 7.5 18.5t18.5 7.5h25zM486 410q11 0 18.5 -7.5t7.5 -18.5v-51q0 -11 -7.5 -18.5t-18.5 -7.5h-332q-11 0 -18.5 7.5t-7.5 18.5v51q0 11 7.5 18.5t18.5 7.5h332z M51 256q11 0 18.5 -7.5t7.5 -17.5v-52q0 -10 -7.5 -17.5t-18.5 -7.5h-25q-11 0 -18.5 7t-7.5 18v52q0 11 7.5 18t18.5 7h25zM486 256q11 0 18.5 -7t7.5 -18v-52q0 -11 -7.5 -18t-18.5 -7h-332q-11 0 -18.5 7t-7.5 18v52q0 11 7.5 18t18.5 7h332zM51 103q11 0 18.5 -7.5 t7.5 -18.5v-51q0 -10 -7.5 -18t-18.5 -8h-25q-11 0 -18.5 7.5t-7.5 18.5v51q0 11 7.5 18.5t18.5 7.5h25zM486 103q11 0 18.5 -7.5t7.5 -18.5v-51q0 -11 -7.5 -18.5t-18.5 -7.5h-332q-11 0 -18.5 7.5t-7.5 18.5v51q0 11 7.5 18.5t18.5 7.5h332z" />
<glyph unicode="&#xf023;" d="M16 416h480q7 0 12 -5q4 -4 4 -12v-63q0 -7 -4 -11q-5 -5 -12 -5h-480q-6 0 -11 5t-5 11v63q0 7 5 12t11 5zM16 256h480q7 0 12 -5q4 -4 4 -12v-63q0 -7 -4 -11q-5 -5 -12 -5h-480q-6 0 -11 5t-5 11v63q0 7 5 12t11 5zM16 96h480q7 0 12 -5q4 -4 4 -12v-63q0 -7 -4 -11 q-5 -5 -12 -5h-480q-6 0 -11 5t-5 11v63q0 7 5 12t11 5z" />
<glyph unicode="&#xf024;" d="M60 480h94q35 0 47 -12.5t12 -47.5v-94q0 -35 -12 -47t-47 -12h-94q-35 0 -47.5 12t-12.5 47v94q0 35 12.5 47.5t47.5 12.5zM358 480h94q35 0 47.5 -12.5t12.5 -47.5v-94q0 -35 -12.5 -47t-47.5 -12h-94q-35 0 -47 12t-12 47v94q0 35 12 47.5t47 12.5zM60 181h94 q35 0 47 -12t12 -47v-94q0 -35 -12 -47.5t-47 -12.5h-94q-35 0 -47.5 12.5t-12.5 47.5v94q0 35 12.5 47t47.5 12zM358 181h94q35 0 47.5 -12t12.5 -47v-94q0 -35 -12.5 -47.5t-47.5 -12.5h-94q-35 0 -47 12.5t-12 47.5v94q0 35 12 47t47 12z" />
<glyph unicode="&#xf025;" d="M499 480v-55q-28 -38 -75.5 -91.5t-80.5 -87.5l-33 -35v-189l-108 -54v243q-115 129 -189 215v54h486z" />
<glyph unicode="&#xf026;" d="M473 396l31 -23q5 -4 7 -13q1 -5 -9 -18l-149 -207q-5 -6 -14 -8q-9 0 -15 6l-62 60l-68 -136q-5 -8 -17 -8l-138 -1q-39 0 -39 20v39q0 19 39 19h96l97 177q2 6 11 7q10 2 16 -6l71 -69l116 157q11 16 27 4z" />
<glyph unicode="&#xf027;" d="M512 342q0 -8 -6 -14t-14 -6h-472q-8 0 -14 6t-6 14v79q0 7 6 13.5t14 6.5h472q20 0 20 -14v-85zM354 362h119v39h-119v-39zM512 187q0 -8 -6.5 -15t-13.5 -7h-472q-7 0 -13.5 7t-6.5 15v74q0 8 6.5 15t13.5 7h472q7 0 13.5 -7t6.5 -15v-74zM177 204h296v40h-296v-40z M512 27q0 -7 -6 -13.5t-14 -6.5h-472q-8 0 -14 6.5t-6 13.5v79q0 8 6 14t14 6h472q8 0 14 -6t6 -14v-79zM295 47h178v39h-178v-39z" />
<glyph unicode="&#xf028;" d="M49 480h414q20 0 34.5 -15.5t14.5 -37.5v-142h-166q-4 35 -29.5 58t-60.5 23t-61 -23t-30 -58h-165v142q0 22 14.5 37.5t34.5 15.5zM256 341q27 0 46.5 -19.5t19.5 -46.5q0 -28 -19.5 -47.5t-46.5 -19.5q-28 0 -47.5 19.5t-19.5 47.5q0 27 19.5 46.5t47.5 19.5zM256 229 q19 0 32 13.5t13 32.5t-13 32.5t-32 13.5t-32.5 -13.5t-13.5 -32.5t13 -32.5t33 -13.5zM512 264v-242q0 -22 -14.5 -38t-34.5 -16h-414q-20 0 -34.5 16t-14.5 38v242h165q4 -34 30 -57.5t61 -23.5t60.5 23.5t29.5 57.5h166z" />
<glyph unicode="&#xf029;" d="M0 281l233 122l256 -111l-235 -116zM20 232l204 -94l60 -2l186 111l39 -32l-233 -101l-61 -1l-195 108v11zM57 173l133 -83l88 -5l191 90l43 -42l-285 -86l-31 -2z" />
<glyph unicode="&#xf02a;" d="M299 267h171q13 0 27.5 -14.5t14.5 -28.5v-214q0 -13 -14.5 -27.5t-27.5 -14.5h-428q-13 0 -27.5 14.5t-14.5 27.5v428q0 13 14.5 27.5t27.5 14.5h214q14 0 28.5 -14.5t14.5 -27.5v-171zM73 335q10 -10 23 -10t22.5 10t9.5 24t-9.5 24t-22.5 10t-22.5 -10t-9.5 -24t9 -24 zM169 335q10 -10 23 -10t22.5 10t9.5 24t-9.5 24t-22.5 10t-22.5 -10t-9.5 -24t9 -24zM73 233q10 -10 23 -10t22.5 10t9.5 24t-9.5 24t-22.5 10t-22.5 -10t-9.5 -24t9 -24zM169 233q10 -10 23 -10t22.5 10t9.5 24t-9.5 24t-22.5 10t-22.5 -10t-9.5 -24t9 -24zM73 131 q10 -10 23 -10t22.5 10t9.5 24t-9.5 24t-22.5 10t-22.5 -10t-9.5 -24t9 -24zM169 131q10 -10 23 -10t22.5 10t9.5 24t-9.5 24t-22.5 10t-22.5 -10t-9.5 -24t9 -24zM297 131q10 -10 23 -10t22.5 10t9.5 24t-9.5 24t-22.5 10t-22.5 -10t-9.5 -24t9 -24zM393 131q10 -10 23 -10 t22.5 10t9.5 24t-9.5 24t-22.5 10t-22.5 -10t-9.5 -24t9 -24z" />
<glyph unicode="&#xf02b;" d="M512 441v-434q0 -16 -11.5 -27.5t-27.5 -11.5h-434q-16 0 -27.5 11.5t-11.5 27.5v434q0 16 11.5 27.5t27.5 11.5h434q16 0 27.5 -11.5t11.5 -27.5zM230 224v153q0 9 -7 17.5t-18 8.5h-102q-8 0 -17 -9t-9 -17v-153q0 -8 9 -17t17 -9h102q8 0 16.5 9t8.5 17zM435 96v281 q0 8 -9 17t-17 9h-102q-8 0 -16.5 -9t-8.5 -17v-281q0 -8 8.5 -16.5t16.5 -8.5h102q8 0 17 8.5t9 16.5z" />
<glyph unicode="&#xf02c;" d="M73 480h366q30 0 51.5 -21.5t21.5 -51.5v-219h-74v183q0 15 -10.5 26t-26.5 11h-73q-15 0 -25.5 -11t-10.5 -26v-183h-73q-15 0 -26.5 -10.5t-11.5 -25.5v-73q0 -17 9.5 -26.5t19.5 -10.5h9h36q15 0 26 -11t11 -26t-11 -25.5t-26 -10.5h-74v-1h-108q-30 0 -51.5 21.5 t-21.5 51.5v366q0 30 21.5 51.5t51.5 21.5zM219 261v110q0 15 -11 26t-26 11h-73q-15 0 -26 -11t-11 -26v-110q0 -15 11 -25.5t26 -10.5h73q15 0 26 10.5t11 25.5zM401 152h73q16 0 26.5 -11t10.5 -26t-10.5 -25.5t-26.5 -10.5h-73v-73q0 -16 -10.5 -26.5t-25.5 -10.5 t-26 10.5t-11 26.5v73h-73q-15 0 -25.5 10.5t-10.5 25.5t10.5 26t25.5 11h73v73q0 15 11 25.5t26 10.5t25.5 -10.5t10.5 -25.5v-73z" />
<glyph unicode="&#xf02d;" d="M347 334h-292q-23 0 -39 16t-16 39t16 39t39 16h292q23 0 39 -16t16 -39t-16 -39t-39 -16zM55 261h110q22 0 38 -16t16 -39t-16 -39t-38 -16h-110q-23 0 -39 16t-16 39t16 39t39 16zM402 151h73q16 0 26.5 -10.5t10.5 -25.5t-10.5 -26t-26.5 -11h-73v-73q0 -15 -10.5 -26 t-25.5 -11t-26 11t-11 26v73h-73q-15 0 -26 11t-11 26t11 25.5t26 10.5h73v73q0 15 11 26t26 11t25.5 -11t10.5 -26v-73zM55 78h73q23 0 39 -16t16 -39t-16.5 -39t-38.5 -16h-73q-23 0 -39 16t-16 39t16 39t39 16z" />
<glyph unicode="&#xf02e;" d="M75 405q75 75 181 75t181 -75t75 -181t-75 -181t-181 -75t-181 75t-75 181t75 181zM126 94q54 -53 130 -53t129.5 53.5t53.5 129.5t-53.5 129.5t-129.5 53.5t-129.5 -53.5t-53.5 -129.5t53 -130z" />
<glyph unicode="&#xf02f;" d="M110 480h292q46 0 78 -32t32 -78v-292q0 -46 -32 -78t-78 -32h-292q-46 0 -78 32t-32 78v292q0 46 32 78t78 32zM438 78v292q0 15 -10.5 25.5t-25.5 10.5h-292q-15 0 -25.5 -10.5t-10.5 -25.5v-292q0 -15 10.5 -25.5t25.5 -10.5h292q15 0 25.5 10.5t10.5 25.5z" />
<glyph unicode="&#xf030;" d="M110 480h292q46 0 78 -32t32 -78v-292q0 -46 -32 -78t-78 -32h-292q-46 0 -78 32t-32 78v292q0 46 32 78t78 32zM439 78v293q0 15 -11 25.5t-26 10.5h-293q-15 0 -25.5 -10.5t-10.5 -25.5v-293q0 -15 10.5 -26t25.5 -11h293q15 0 26 11t11 26zM109 371h74v-74h-74v74z M109 261h74v-74h-74v74zM109 151h74v-74h-74v74z" />
<glyph unicode="&#xf031;" d="M109 481h293q45 0 77.5 -32.5t32.5 -77.5v-293q0 -45 -32.5 -78t-77.5 -33h-293q-45 0 -77 33t-32 78v293q0 45 32 77.5t77 32.5zM438 78v293q0 15 -10.5 25.5t-25.5 10.5h-293q-15 0 -25.5 -10.5t-10.5 -25.5v-293q0 -15 10.5 -25.5t25.5 -10.5h293q15 0 25.5 10.5 t10.5 25.5zM373 331l26 -25q3 -3 3 -7t-3 -7l-175 -174q-6 -6 -13 0l-26 26l-13 13l-60 63q-3 3 -3 7q0 3 3 6l26 24q4 2 7 2q4 0 6 -2l60 -61q7 -6 13 0l136 135q3 3 7 3q5 0 6 -3z" />
<glyph unicode="&#xf032;" d="M73 -32q-15 0 -25.5 10.5t-10.5 25.5v439q0 16 10.5 26.5t25.5 10.5h256l146 -146v-330q0 -15 -10.5 -25.5t-26.5 -10.5h-365zM292 298v109h-182v-365h292v256h-110z" />
<glyph unicode="&#xf033;" d="M323 117q93 0 107 69v-141q0 -30 -20.5 -51t-50.5 -21h-287q-30 0 -51 21.5t-21 50.5v359q0 29 21 50t51 21h287q30 0 50.5 -21t20.5 -50v-72q-3 -6 -10.5 -15.5t-35 -29t-62.5 -27.5v9.5v13t-1 13t-3 14t-6 11t-10.5 8.5t-14.5 3q-33 0 -69 -28t-111 -115q0 -9 25 -39 t69.5 -63t85.5 -42q21 0 30 18t7 36zM461 315q31 34 39 2q8 -33 -12 -75q-4 -8 -9 -15q-21 -24 -49 -41q-30 -17 -65.5 -25.5t-56.5 -8.5l-21 1v-72l-143 108l143 107v-71q79 0 119.5 28t54.5 62z" />
<glyph unicode="&#xf034;" d="M256 -32l-218 223q-38 40 -38 94q0 53 38 93q38 38 90 38q22 0 56 -18q35 -18 49 -28q13 -9 23 -19l21 16q22 17 52 33q31 16 52 16q55 2 93 -39q38 -38 38 -92t-38 -94z" />
<glyph unicode="&#xf035;" d="M256 480q5 0 12.5 -0.5t30.5 -4t44 -10t46 -20.5t43.5 -32t31 -48t12.5 -67q0 -44 -12 -86.5t-31.5 -74t-43 -60t-47 -48t-43 -34t-31.5 -21.5l-12 -6q-9 5 -24 14t-52.5 40.5t-66.5 66.5t-53 92t-24 117q0 51 22.5 88t55 54.5t65 27.5t55.5 11zM204 246q22 -22 52 -22 t52 22t22 52t-22 51.5t-52 21.5t-51.5 -21.5t-21.5 -51.5t21 -52z" />
<glyph unicode="&#xf036;" d="M75 405q75 75 181 75t181 -75t75 -181t-75 -181t-181 -75t-181 75t-75 181t75 181zM120 88q56 -56 136 -56t136 56t56 136t-56 136t-136 56t-136 -56t-56 -136t56 -136zM288 256h64v-64h-128v160h64v-96z" />
<glyph unicode="&#xf037;" d="M256 480q106 0 181 -75t75 -181t-75 -181t-181 -75t-181 75t-75 181t75 181t181 75zM238 92l183 184q7 7 0 14l-27 27q-6 7 -13 0l-143 -142q-7 -7 -14 0l-62 64q-4 2 -7 2t-7 -2l-28 -25q-2 -4 -2 -7t2 -7l64 -66l13 -14l27 -28q7 -6 14 0z" />
<glyph unicode="&#xf038;" d="M247 448q17 0 29 -12t12 -29v-366q0 -17 -12 -28q-12 -12 -29 -12q-18 0 -30 12l-5 6q-92 104 -130 104h-41q-17 0 -29 12q-12 11 -12 28v122q0 17 12 29t29 12h41q18 0 54 30q38 32 53 48q7 7 16 18t10 12l3 4q1 1 10 7q7 3 19 3zM398 373l24 36q42 -33 66 -81t24 -103 q0 -56 -24 -104t-66 -81l-24 35q32 26 52 66q19 38 19 84q0 45 -19 83q-20 39 -52 65zM350 302l24 36q53 -45 53 -113q0 -69 -53 -114l-24 36q34 31 34 78q0 46 -34 77z" />
<glyph unicode="&#xf039;" d="M375 384h74q17 0 30 -3q15 -5 19 -8t10 -9l4 -8v-4v-320l-2 -8q-2 -9 -18 -16q-18 -8 -44 -8h-384q-28 0 -44 9t-18 14q-2 6 -2 9v320l2 8q2 9 18 16q18 8 44 8h66l21 45q5 9 16 14q12 5 24 5h122q12 0 25 -5q12 -6 15 -14zM347 102q37 37 37 90q0 54 -37 91t-91 37 q-53 0 -90 -37q-38 -38 -38 -91q0 -52 38 -90t90 -38q53 0 91 38zM313 249q23 -25 23 -57q0 -33 -23 -56q-24 -24 -57 -24q-34 0 -56 24q-24 22 -24 56q0 33 24 57q23 23 56 23q32 0 57 -23z" />
<glyph unicode="&#xf040;" d="M224 416h-160v-384h384v160l64 64v-241q0 -20 -13 -33q-14 -14 -34 -14h-418q-19 0 -33 14t-14 33v418q0 20 14 34q13 13 33 13h241zM480 355q-16 29 -40 52q-25 25 -53 41l32 32q47 0 70 -23q9 -9 16 -28q6 -18 6 -30l1 -12zM233 104q-18 30 -42 54q-25 25 -55 43 l224 220q30 -13 55 -38t38 -55zM96 64v98l12 11q32 -15 57 -40t40 -57l-11 -12h-98z" />
<glyph unicode="&#xf041;" d="M454 480v-369q1 -22 -16 -43t-45 -31q-33 -12 -57.5 -3.5t-32.5 33.5q-9 26 3.5 51.5t44.5 37.5q27 10 56 5v198l-187 -43v-258q1 -22 -16 -42.5t-45 -30.5q-33 -12 -57 -4t-33 33q-9 26 3.5 51.5t44.5 37.5q28 12 56 5v312z" />
<glyph unicode="&#xf042;" d="M286 442l171 -169q13 -12 13 -29t-13 -30q-12 -12 -29.5 -12t-30.5 12l-90 90v-276q0 -17 -14.5 -25.5t-33.5 -8.5q-20 0 -36 8.5t-16 25.5v276l-92 -90q-12 -12 -29.5 -12t-30.5 12q-13 13 -13 30t13 29l172 169q14 13 33 11q13 0 26 -11z" />
<glyph unicode="&#xf043;" d="M223 3l-171 169q-13 12 -13 29t13 30q12 12 29.5 12t30.5 -12l90 -90v276q0 17 14.5 25.5t33.5 8.5q20 0 36 -8.5t16 -25.5v-276l92 90q12 12 29.5 12t30.5 -12q13 -13 13 -30t-13 -29l-172 -169q-14 -13 -33 -11q-13 0 -26 11z" />
<glyph unicode="&#xf044;" d="M256 480q53 0 99.5 -20t81.5 -55t55 -81.5t20 -99.5t-20 -99.5t-55 -81.5t-81.5 -55t-99.5 -20t-99.5 20t-81.5 55t-55 81.5t-20 99.5t20 99.5t55 81.5t81.5 55t99.5 20zM407 73q30 32 46 68q16 38 16 83t-16 83q-16 36 -46 68q-32 30 -68 46q-38 16 -83 16t-83 -16 q-36 -16 -68 -46q-30 -32 -46 -68q-16 -38 -16 -83t16 -83q16 -36 46 -68q32 -30 68 -46q38 -16 83 -16t83 16q36 16 68 46zM357 331q8 0 14 -6t6 -15q0 -7 -5 -14l-137 -185q-1 -2 -4 -5q-6 -6 -15 -6q-8 0 -14 6l-79 79q-6 6 -6 14q0 9 6 15t14 6q9 0 15 -6l62 -62 l128 172v1q6 6 15 6z" />
<glyph unicode="&#xf045;" d="M443 340q20 0 34 -14t14 -34v-276q0 -20 -14 -34t-34 -14h-374q-20 0 -34 14t-14 34v276q0 20 14 34t34 14h53v-33h-53q-6 0 -10 -4.5t-4 -10.5v-276q0 -14 14 -14h374q14 0 14 14v276q0 6 -4 10.5t-10 4.5h-53v33h53zM161 183q-15 0 -25 10.5t-10 25.5q0 21 18 31v123 q0 22 10 41.5t26 34t37 23t43 8.5t41.5 -8.5t34.5 -23t23.5 -34t8.5 -41.5v-124q17 -10 17 -30q0 -15 -10.5 -25.5t-25.5 -10.5q-14 0 -24.5 10.5t-10.5 25.5q0 24 20 32v122q0 30 -22 51.5t-52 21.5q-15 0 -29.5 -6t-26.5 -15.5t-19 -23t-7 -28.5v-123q18 -10 18 -31 q0 -15 -10 -25.5t-25 -10.5zM312 307h-112v33h112v-33z" />
<glyph unicode="&#xf046;" d="M441 -32h-259q-8 0 -13 5t-5 12q0 8 5 13t13 5h259q14 0 25 9t11 23v379q0 14 -11 23t-25 9h-270q-14 0 -22.5 -9t-8.5 -23v-379q0 -28 -22 -47.5t-50 -19.5h-1q-28 0 -47.5 19.5t-19.5 47.5v239q0 8 5 13t13 5q7 0 12 -5t5 -13v-239q0 -14 9 -23t23 -9h1q14 0 25.5 9 t11.5 23v379q0 28 19 47t47 19h270q28 0 49.5 -19t21.5 -47v-379q0 -28 -21.5 -47.5t-49.5 -19.5zM413 340h-212q-8 0 -13 5t-5 13q0 7 5 12t13 5h212q8 0 12.5 -5t4.5 -12q0 -8 -4.5 -13t-12.5 -5zM413 259h-212q-8 0 -13 5t-5 12q0 8 5 13t13 5h212q8 0 12.5 -5t4.5 -13 q0 -7 -4.5 -12t-12.5 -5zM413 177h-212q-8 0 -13 5t-5 13q0 7 5 12t13 5h212q8 0 12.5 -5t4.5 -12q0 -8 -4.5 -13t-12.5 -5zM413 96h-212q-8 0 -13 5t-5 12q0 8 5 13t13 5h212q8 0 12.5 -5t4.5 -13q0 -7 -4.5 -12t-12.5 -5z" />
<glyph unicode="&#xf047;" d="M491 203h-43q-9 0 -15 6t-6 15t6 15t15 6h43q8 0 14.5 -6t6.5 -15t-6.5 -15t-14.5 -6zM407 345q-6 -7 -15 -7t-15 7q-7 6 -7 15t7 15l30 30q6 6 15 6t15 -6t6 -15t-6 -15zM256 96q-27 0 -50 10t-40.5 27.5t-27.5 40.5t-10 50t10 50t27.5 40.5t40.5 27.5t50 10t50 -10 t40.5 -27.5t27.5 -40.5t10 -50t-10 -50t-27.5 -40.5t-40.5 -27.5t-50 -10zM256 309q-35 0 -60 -25t-25 -60t25 -60t60 -25t60 25t25 60t-25 60t-60 25zM256 395q-9 0 -15 6t-6 15v43q0 8 6 14.5t15 6.5t15 -6.5t6 -14.5v-43q0 -9 -6 -15t-15 -6zM105 345l-30 30q-6 6 -6 15 t6 15t15 6t15 -6l30 -30q7 -6 7 -15t-7 -15q-6 -7 -15 -7t-15 7zM85 224q0 -9 -6 -15t-15 -6h-43q-8 0 -14.5 6t-6.5 15t6.5 15t14.5 6h43q9 0 15 -6t6 -15zM105 103q6 7 15 7t15 -7q7 -6 7 -14.5t-7 -15.5l-30 -30q-6 -6 -15 -6t-15 6t-6 15t6 15zM256 53q9 0 15 -6t6 -15 v-43q0 -8 -6 -14.5t-15 -6.5t-15 6.5t-6 14.5v43q0 9 6 15t15 6zM407 103l30 -30q6 -6 6 -15t-6 -15t-15 -6t-15 6l-30 30q-7 7 -7 15.5t7 14.5q6 7 15 7t15 -7z" />
<glyph unicode="&#xf048;" d="M419 115v51q21 12 33.5 33t12.5 47q0 39 -27 66t-66 27q-29 0 -50 -15q-11 47 -48.5 77.5t-87.5 30.5q-29 0 -54.5 -11t-44 -29.5t-29.5 -44t-11 -54.5q0 -31 12.5 -57.5t33.5 -46.5v-57q-42 24 -67.5 66.5t-25.5 94.5q0 39 14.5 72.5t40 59t59 40t72.5 14.5 q53 0 96 -26.5t67 -68.5q5 1 11 1.5t12 0.5q29 0 54.5 -11t44.5 -30t30 -44.5t11 -54.5q0 -45 -26 -81t-67 -50zM163 246q10 0 16.5 -6.5t6.5 -16.5v-186q0 -10 -6.5 -16.5t-16.5 -6.5t-16.5 6.5t-6.5 16.5v186q0 10 6.5 16.5t16.5 6.5zM256 200q10 0 16.5 -7t6.5 -17v-186 q0 -10 -6.5 -16.5t-16.5 -6.5t-16.5 6.5t-6.5 16.5v186q0 10 6.5 17t16.5 7zM349 246q10 0 16.5 -6.5t6.5 -16.5v-186q0 -10 -6.5 -16.5t-16.5 -6.5t-16.5 6.5t-6.5 16.5v186q0 10 6.5 16.5t16.5 6.5z" />
<glyph unicode="&#xf049;" d="M186 40q-39 0 -72.5 14.5t-59 40t-40 59t-14.5 72.5t14.5 72.5t40 59t59 40t72.5 14.5q53 0 96 -26t67 -69q5 1 11 1.5t12 0.5q29 0 54.5 -11t44.5 -30t30 -44.5t11 -54.5t-11 -54.5t-30 -44t-44.5 -29.5t-54.5 -11h-186zM372 86q19 0 36 7.5t30 20t20 29.5t7 36 q0 39 -27 66.5t-66 27.5q-27 0 -50 -15q-11 46 -48.5 77t-87.5 31q-29 0 -54.5 -11t-44 -30t-29.5 -44.5t-11 -54.5t11 -54.5t29.5 -44.5t44 -30t54.5 -11h186z" />
<glyph unicode="&#xf050;" d="M493 205h-38q-8 0 -13.5 5.5t-5.5 13.5t5.5 13.5t13.5 5.5h38q8 0 13.5 -5.5t5.5 -13.5t-5.5 -13.5t-13.5 -5.5zM419 331q-6 -5 -14 -5t-13 5q-6 6 -6 14t6 13l27 27q5 5 13 5t13 -5q13 -14 0 -27zM391 183q12 -14 19 -33t7 -40q0 -24 -9 -44.5t-24.5 -36t-36 -24.5 t-44.5 -9h-151q-32 0 -59.5 12t-48 32.5t-32.5 48t-12 59.5q0 31 12 59t32.5 48.5t48 32.5t59.5 12q22 0 43 -6q15 20 38.5 32t50.5 12q24 0 44.5 -9t36 -24.5t24.5 -36t9 -44.5q0 -11 -2 -21t-5 -20zM38 148q0 -24 9 -44.5t24.5 -36t36 -24.5t44.5 -9h151q32 0 54 22t22 54 t-22 54t-54 22q-23 0 -41 -12q-8 38 -38.5 63t-71.5 25q-24 0 -44.5 -9t-36 -24.5t-24.5 -36t-9 -44.5zM284 300q-16 0 -29.5 -6t-23.5 -16q33 -21 53 -56q5 1 9.5 1.5t9.5 0.5q30 0 56 -14q1 4 1 14q0 32 -22 54t-54 22zM284 376q-8 0 -13.5 5.5t-5.5 13.5v38q0 8 5.5 13.5 t13.5 5.5t13.5 -5.5t5.5 -13.5v-38q0 -19 -19 -19zM150 331l-26 27q-6 6 -6 13.5t6 13.5q5 5 13 5t13 -5l27 -27q6 -5 6 -13t-6 -14q-5 -5 -13 -5t-14 5z" />
<glyph unicode="&#xf051;" d="M14 145q-5 13 -8 23h506q0 -6 -0.5 -12t-1.5 -11h-496zM96 377q20 11 42.5 17.5t47.5 6.5t47.5 -6.5t42.5 -17.5h-180zM2 238q1 6 1.5 11.5t2.5 11.5h470q5 -5 9 -11l8 -12h-491zM14 284q4 11 11 23h322l2 -2q5 1 11 1.5t12 0.5q43 0 77 -23h-435zM41 331q5 6 10.5 12 t11.5 11h246q14 -12 22 -23h-290zM510 191h-508q-1 6 -1.5 11.5t-0.5 11.5h504q4 -10 6 -23zM504 121q-4 -11 -11 -23h-452q-5 5 -8.5 11t-7.5 12h479zM63 75h413q-12 -14 -27 -24h-353q-18 10 -33 24z" />
<glyph unicode="&#xf052;" d="M396 76v48q30 8 49.5 32.5t19.5 56.5q0 39 -27 66t-66 27q-29 0 -50 -15q-11 47 -48.5 77.5t-87.5 30.5q-29 0 -54.5 -11t-44 -29.5t-29.5 -44t-11 -54.5q0 -39 19 -71t50 -50v-51q-26 10 -47 27t-36.5 39.5t-24 49.5t-8.5 56q0 38 14.5 72t40 59t59 39.5t72.5 14.5 q53 0 96 -26t67 -69q10 3 23 3q29 0 54.5 -11t44.5 -30t30 -44.5t11 -54.5q0 -26 -9 -49t-24.5 -41t-36.5 -30.5t-46 -16.5zM175 144q5 8 14.5 10.5t17.5 -2.5l26 -14v29q0 10 6.5 16.5t16.5 6.5t16.5 -6.5t6.5 -16.5v-29l26 14q8 5 17.5 2.5t14.5 -10.5t2 -17.5t-11 -14.5 l-25 -15l25 -14q8 -5 11 -14.5t-2 -17.5t-14.5 -11t-17.5 2l-26 15v-29q0 -10 -6.5 -16.5t-16.5 -6.5t-16.5 6.5t-6.5 16.5v29l-26 -15q-8 -5 -17.5 -2t-14.5 11t-2 17.5t11 14.5l25 14l-25 15q-8 5 -11 14.5t2 17.5zM256 74q10 0 16.5 7t6.5 16q0 10 -6.5 17t-16.5 7 t-16.5 -7t-6.5 -17q0 -9 6.5 -16t16.5 -7z" />
<glyph unicode="&#xf053;" d="M256 329q22 0 41 -8.5t33.5 -22.5t23 -33t8.5 -41t-8.5 -41.5t-23 -33.5t-33.5 -22.5t-41 -8.5t-41 8.5t-33.5 22.5t-23 33.5t-8.5 41.5t8.5 41t23 33t33.5 22.5t41 8.5zM256 153q29 0 50 21t21 50t-21 50t-50 21t-50 -21t-21 -50t21 -50t50 -21zM475 298q14 0 25 -10 t11 -24v-80q0 -14 -11 -24.5t-25 -10.5h-21q-4 0 -7 -5q-2 -4 2 -8l15 -15q11 -10 11 -24t-11 -25l-56 -56q-11 -11 -25 -11t-25 11l-15 15q-2 2 -5 2q-2 0 -3 -1q-4 -2 -4 -7v-21q0 -14 -10.5 -25t-24.5 -11h-80q-14 0 -24.5 11t-10.5 25v21q0 5 -4 7q-1 1 -3 1q-3 0 -5 -2 l-15 -15q-11 -11 -25 -11t-25 11l-56 56q-11 11 -11 25t11 24l15 15q4 4 2 8q-3 5 -7 5h-21q-14 0 -25 10.5t-11 24.5v80q0 14 11 24t25 10h21q4 0 7 5q1 4 -2 8l-15 15q-11 10 -11 24.5t11 24.5l56 57q12 10 25 10t25 -10l15 -15q1 -2 5 -2h3q4 2 4 7v21q0 14 10.5 25.5 t24.5 11.5h80q14 0 24.5 -11.5t10.5 -25.5v-21q0 -5 4 -7h3q4 0 5 2l15 15q12 10 25 10t25 -10l56 -57q11 -10 11 -24.5t-11 -24.5l-15 -15q-4 -4 -2 -8q3 -5 7 -5h21zM477 263h-23q-13 0 -23.5 7.5t-15.5 19.5q-10 25 9 46l15 14l-56 57l-15 -15q-12 -12 -30 -12 q-9 0 -16 3q-12 5 -19 15.5t-7 23.5v23h-80v-23q0 -13 -7 -23.5t-19 -15.5q-8 -3 -16 -3q-18 0 -30 12l-15 15l-56 -57l15 -15q9 -9 11.5 -21.5t-2.5 -23.5q-5 -12 -15.5 -19.5t-23.5 -7.5h-23v-79h23q13 0 23.5 -7.5t15.5 -18.5q5 -12 2.5 -24.5t-11.5 -21.5l-15 -15 l56 -57l15 15q13 13 30 13q9 0 16 -4q26 -10 26 -39v-22h80v22q0 29 26 39q7 4 16 4q17 0 30 -13l15 -15l56 57l-15 15q-9 9 -11.5 21.5t2.5 24.5q5 11 15.5 18.5t23.5 7.5h23v79z" />
<glyph unicode="&#xf054;" d="M354 231q11 0 18 -7t7 -18q0 -10 -7 -17l-99 -99q-7 -7 -17 -7t-17 7l-99 99q-7 7 -7 17q0 11 7 18t18 7q9 0 18 -7l56 -57v187q0 10 6.5 17t16.5 7q11 0 17.5 -7t6.5 -17v-187l57 57q7 7 18 7zM256 479q53 0 99.5 -20t81.5 -55t55 -81.5t20 -99.5t-20 -99.5t-55 -81.5 t-81.5 -55t-99.5 -20t-99.5 20t-81.5 55t-55 81.5t-20 99.5t20 99.5t55 81.5t81.5 55t99.5 20zM256 3q45 0 85 17.5t70 47.5t47.5 70t17.5 85t-17.5 85t-47.5 70t-70 47.5t-85 17.5t-85 -17.5t-70 -47.5t-47.5 -70t-17.5 -85t17.5 -85t47.5 -70t70 -47.5t85 -17.5z" />
<glyph unicode="&#xf055;" d="M258 269q-11 0 -15.5 5t-4.5 10v179q0 6 4.5 11t15.5 5t15.5 -5t4.5 -11v-179q0 -5 -4.5 -10t-15.5 -5zM394 443q33 -21 57.5 -50.5t39.5 -64t19 -73t-3 -77.5q-8 -45 -30.5 -83.5t-55 -66t-73 -44t-84.5 -17.5h-1h-7h-7h-1q-44 1 -84.5 17.5t-73 44t-55 66t-30.5 83.5 q-8 39 -3.5 77.5t19.5 73t39.5 64t57.5 50.5q7 5 14 3t12 -9q4 -6 2.5 -13.5t-8.5 -12.5q-28 -18 -49 -43t-34 -54.5t-16.5 -62.5t2.5 -66q6 -35 22 -64.5t39.5 -52.5t52.5 -38.5t61 -21.5h1q19 -3 39 -3q19 0 39 3q66 12 114.5 59.5t61.5 117.5q6 33 2.5 66t-16.5 62.5 t-34 54.5t-49 43q-7 5 -8.5 12.5t2.5 13.5q5 7 12 9t14 -3z" />
<glyph unicode="&#xf056;" d="M464 3q7 -1 11.5 -6.5t3.5 -12.5q-2 -16 -17 -16h-2l-123 14q-8 0 -12 6q-4 5 -4 13l13 124q2 7 7 11.5t13 3.5t12.5 -6.5t2.5 -12.5l-8 -78q50 28 80.5 77.5t30.5 110.5q0 44 -17 83t-46 68t-68 46t-83 17h-3q-16 2 -16 17q0 7 4.5 11.5t10.5 6.5h2h1h1q51 0 96.5 -19.5 t79.5 -53.5t53.5 -79.5t19.5 -96.5q0 -71 -35.5 -129t-93.5 -90zM48 445q-7 1 -11.5 6.5t-3.5 12.5q2 16 17 16h2l123 -14q7 0 12 -6q4 -5 4 -13l-13 -124q-2 -7 -7 -11.5t-13 -3.5t-12.5 6.5t-2.5 12.5l8 78q-50 -28 -80.5 -77.5t-30.5 -110.5q0 -44 17 -83t46 -68t68 -46 t83 -17h3q16 -2 16 -17q0 -7 -4.5 -11.5t-10.5 -6.5h-2h-1h-1q-51 0 -96.5 19.5t-79.5 53.5t-53.5 79.5t-19.5 96.5q0 71 35.5 129t93.5 90z" />
<glyph unicode="&#xf057;" d="M254 333q27 0 51 -10.5t42 -28.5t28.5 -42.5t10.5 -51.5t-10.5 -51.5t-28.5 -42.5t-42 -28.5t-51 -10.5q-28 0 -52 10.5t-42 28.5t-28.5 42.5t-10.5 51.5t10.5 51.5t28.5 42.5t42 28.5t52 10.5zM254 86q23 0 43.5 9t36 24.5t24.5 36t9 44.5q0 23 -9 43.5t-24.5 36 t-36 24.5t-43.5 9q-24 0 -44.5 -9t-36 -24.5t-24.5 -36t-9 -43.5q0 -24 9 -44.5t24.5 -36t36 -24.5t44.5 -9zM254 289q37 0 63 -26t26 -63q0 -38 -26 -64t-63 -26q-38 0 -64 26t-26 64q0 37 26 63t64 26zM254 125q31 0 52.5 21.5t21.5 53.5q0 31 -21.5 53t-52.5 22 q-32 0 -53.5 -22t-21.5 -53q0 -32 21.5 -53.5t53.5 -21.5zM452 361q25 0 42.5 -17t17.5 -43v-212q0 -26 -17.5 -43.5t-42.5 -17.5h-392q-25 0 -42.5 17.5t-17.5 43.5v212q0 26 17.5 43t42.5 17h71q1 24 18 41.5t42 17.5h130q25 0 42 -17.5t18 -41.5h71zM488 301 q0 15 -10.5 25.5t-25.5 10.5h-95v25q-1 14 -11.5 23.5t-24.5 9.5h-130q-14 0 -25 -9.5t-11 -23.5v-25h-95q-15 0 -25.5 -10.5t-10.5 -25.5v-212q0 -15 10.5 -26t25.5 -11h392q15 0 25.5 11t10.5 26v212z" />
<glyph unicode="&#xf058;" d="M460 27q1 -26 -12 -39q-15 -16 -50 -16l-59 2v17l59 -2q2 -1 5 -1q23 0 32 11q10 10 8 28v33h-228v-92h-16v254h261v-195zM443 148v58h-228v-58h228zM215 131v-55h228v55h-228zM499 288v-16h-344v16h166v49h-136v17h136v51h-148v14h148v61h17v-61h155v-14h-155v-51h138 v-17h-138v-49h161zM13 432h122v-420h-17v52h-89v-57h-16v425zM118 255v161h-89v-161h89zM29 239v-158h89v158h-89z" />
<glyph unicode="&#xf059;" d="M309 139l10 14l95 -65l-10 -14zM105 274l95 -65l-7 -14l-95 65zM105 153l95 -65l-7 -14l-95 65zM404 196l-95 64l10 14l95 -65zM263 439v-90h214v-293q2 -30 -15 -47q-16 -17 -52 -17h-4l-59 2l4 17l55 -3h4q27 0 40 13q11 13 10 35v277h-197v-338h-17v338h-194v-344h-17 v360h211v90h-246v16h512v-16h-249z" />
<glyph unicode="&#xf060;" d="M169 96q-22 -19 -66 -19q-11 0 -23.5 0.5t-25.5 1.5l-4 1l4 17h3q11 -2 22 -2h24q38 0 52 15q13 13 13 52q0 61 -58 123l-1 1l56 176h-127v-490h-18v508h164v-15v-1l-56 -172q30 -32 43 -62q15 -33 15 -68q0 -45 -17 -65v-1zM492 59q2 -40 -16 -59q-17 -17 -49 -17h-9 q-42 0 -63 3h-4l4 15h64q3 -1 11 -1q21 0 33 12q13 14 11 47v114h-205q-2 -32 -8 -60t-19 -54q-24 -51 -73 -89l-2 -2l-12 11l3 2q61 52 76 107q19 50 19 183v205h239v-417zM474 330v128h-203v-128h203zM271 314v-44q0 -22 -0.5 -41.5t-1.5 -36.5h205v122h-203z" />
<glyph unicode="&#xf061;" d="M512 271h-296l13 -9l-2 -3q-35 -60 -76 -113t-88 -100q20 2 78.5 4t153.5 5q54 2 86.5 3t46.5 1l-103 127l10 11l158 -188l-13 -10l-38 43q-128 -1 -225 -3t-163 -6l-34 -4l-3 17h22q98 94 175 223l1 2h-215v17h512v-17zM461 432h-412v17h412v-17z" />
<glyph unicode="&#xf062;" d="M431 341h-130v17h130v-17zM41 307h-14v96h220v42h-195v16h405v-16h-194v-42h222v-88h-16v71h-206v-109h-16v109h-206v-79zM301 313h130v-15h-130v15zM512 148l-3 -16h-3q-74 5 -135.5 13t-110.5 22q-106 -27 -254 -39h-3l-3 16h3q106 9 224 30q-71 23 -107 48 q-35 -21 -94 -44l-3 -1l-6 16l3 1q99 38 159 86l2 1l10 -10l-2 -2q-11 -11 -27 -21h285v-15l-2 -1q-29 -17 -66.5 -31t-84.5 -27q44 -9 97.5 -15t117.5 -11h3zM138 231h-1q52 -32 123 -48q88 19 150 48h-272zM209 341h-129v17h129v-17zM218 135q0 -16 -4 -28h229l-5 -61 q-2 -48 -82 -48h-7h-98v16h98h8q45 0 59 15q6 6 6 17l4 45h-215q-7 -34 -55 -60q-23 -14 -57 -24.5t-78 -19.5h-2l-4 14h3q164 36 176 90h-167v16h170v2v1q4 9 4 25v3h17v-3zM80 313h129v-15h-129v15z" />
<glyph unicode="&#xf063;" d="M207 336v-18h-141v18h141zM36 173v18h434v-223h-18v35h-423v18h423v66h-402v15h402v71h-416zM66 257v18h141v-18h-141zM264 406h240v-107h-18v89h-222v-163h-18v163h-220v-89h-18v107h238v56h-211v18h441v-18h-212v-56zM305 257v18h140v-18h-140zM445 336v-18h-140v18 h140z" />
<glyph unicode="&#xf068;" horiz-adv-x="0" />
<glyph horiz-adv-x="0" />
</font>
</defs>
</svg>
